<?xml version="1.0" standalone="no"?>
<!DOCTYPE svg PUBLIC "-//W3C//DTD SVG 20010904//EN"
 "http://www.w3.org/TR/2001/REC-SVG-20010904/DTD/svg10.dtd">
<svg version="1.0" xmlns="http://www.w3.org/2000/svg"
 width="512.000000pt" height="512.000000pt" viewBox="0 0 512.000000 512.000000"
 preserveAspectRatio="xMidYMid meet">
<metadata>
Created by potrace 1.11, written by Peter Selinger 2001-2013
</metadata>
<g transform="translate(0.000000,512.000000) scale(0.100000,-0.100000)"
fill="#000000" stroke="none">
<path d="M2649 4509 c-73 -10 -153 -42 -203 -82 -52 -40 -69 -61 -98 -115 -22
-41 -24 -43 -63 -37 -22 3 -51 8 -65 11 -14 3 -56 11 -95 19 -38 7 -95 18
-126 24 -50 10 -69 8 -190 -20 -74 -17 -143 -32 -154 -35 -11 -2 -92 -20 -180
-40 -88 -19 -167 -37 -175 -39 -8 -2 -78 -17 -155 -34 -77 -17 -149 -33 -160
-35 -11 -2 -58 -13 -105 -24 -47 -12 -113 -26 -148 -33 -49 -9 -68 -18 -87
-41 l-25 -30 0 -1645 c0 -1527 1 -1647 17 -1674 34 -57 47 -57 325 5 139 31
271 61 293 66 22 5 162 37 310 70 149 33 295 65 325 72 43 10 68 10 115 1 33
-7 74 -14 90 -17 17 -3 86 -16 155 -30 69 -14 136 -27 150 -30 14 -2 75 -14
135 -26 61 -12 223 -44 360 -71 138 -27 295 -58 350 -69 55 -11 109 -18 120
-16 11 3 112 29 225 60 113 30 250 67 305 81 55 15 183 49 285 77 102 27 192
51 200 53 56 13 68 19 83 45 16 26 17 151 17 1670 0 1224 -3 1647 -12 1663
-36 69 -50 68 -368 -18 -60 -16 -275 -74 -430 -115 -102 -27 -203 -55 -225
-62 -49 -16 -142 -16 -216 1 -53 11 -56 14 -53 39 7 63 -41 189 -93 248 -97
107 -259 157 -434 133z"/>
</g>
</svg>
